<?xml version="1.0" standalone="no"?>
<!DOCTYPE svg PUBLIC "-//W3C//DTD SVG 20010904//EN"
 "http://www.w3.org/TR/2001/REC-SVG-20010904/DTD/svg10.dtd">
<svg version="1.0" xmlns="http://www.w3.org/2000/svg"
 width="300.000000pt" height="300.000000pt" viewBox="0 0 300.000000 300.000000"
 preserveAspectRatio="xMidYMid meet">

<g transform="translate(0.000000,300.000000) scale(0.100000,-0.100000)"
fill="#000000" stroke="none">
<path d="M0 1500 l0 -1500 1500 0 1500 0 0 1500 0 1500 -1500 0 -1500 0 0
-1500z m2439 963 c0 -8 -433 -365 -448 -371 -4 -1 -29 9 -54 24 l-47 26 198
164 197 164 78 0 c42 0 77 -3 76 -7z m-688 -352 c87 -22 195 -73 191 -89 -1
-7 9 -12 22 -12 13 0 29 -7 36 -15 11 -13 9 -19 -10 -35 -25 -22 -16 -26 26
-10 19 8 30 7 41 -2 12 -10 9 -17 -21 -44 -20 -18 -36 -36 -36 -39 0 -8 35 2
73 20 23 12 29 11 42 -1 23 -23 18 -40 -15 -54 -17 -7 -47 -28 -67 -46 -50
-46 -21 -46 63 0 34 19 65 32 68 29 10 -10 7 -33 -4 -33 -23 0 -92 -53 -116
-89 -88 -134 -18 -283 141 -301 65 -7 71 -29 19 -76 l-38 -33 37 6 c32 5 37 3
37 -14 0 -11 -13 -30 -30 -43 -36 -28 -39 -43 -6 -30 13 5 27 6 30 3 12 -12 6
-42 -11 -55 -10 -7 -25 -21 -33 -32 -14 -18 -13 -18 18 -12 28 7 32 5 32 -12
0 -12 -19 -36 -42 -56 -41 -36 -41 -36 -14 -36 15 0 25 4 22 9 -4 5 3 7 14 4
30 -8 24 -38 -12 -72 -18 -17 -36 -31 -40 -31 -5 0 -8 -5 -8 -11 0 -6 7 -8 16
-5 48 19 64 18 64 -1 0 -31 -72 -83 -114 -83 l-36 0 0 165 c0 139 -2 167 -15
171 -8 4 -22 1 -30 -6 -12 -10 -15 -43 -15 -171 l0 -159 -95 0 -95 0 0 164 c0
136 -3 165 -15 170 -8 3 -22 3 -30 0 -12 -5 -15 -34 -15 -170 l0 -165 -110 3
-111 3 -2 157 c-1 112 -6 161 -15 170 -19 19 -46 -3 -50 -40 -2 -21 -10 -33
-25 -38 -11 -4 -42 -19 -67 -35 -30 -18 -54 -26 -68 -22 -29 7 -28 16 6 30 32
15 86 63 78 71 -3 3 -40 -12 -81 -32 -48 -24 -82 -35 -95 -31 -20 6 -28 25
-11 25 13 0 95 55 111 75 9 11 9 15 1 15 -18 0 -101 -39 -133 -63 -22 -17 -30
-18 -43 -7 -22 19 -19 24 25 44 21 9 51 31 65 49 52 65 58 70 71 52 16 -21 58
-16 62 8 3 17 -24 51 -197 247 -145 164 -152 171 -169 168 -26 -5 -27 -47 -1
-74 13 -14 19 -28 13 -32 -63 -53 -106 -82 -114 -77 -15 9 -12 133 5 200 32
122 108 236 209 311 89 68 158 99 286 133 65 17 251 13 331 -8z m-619 -654
l21 -29 -33 -27 c-18 -14 -57 -44 -85 -66 -29 -22 -102 -79 -163 -127 l-110
-86 -31 32 c-17 18 -31 36 -31 41 0 6 37 38 83 72 45 34 132 102 192 151 118
96 117 96 157 39z m-402 -409 l82 -93 -29 -22 c-15 -13 -33 -22 -39 -21 -6 2
-37 35 -70 73 -95 113 -90 101 -57 129 15 14 29 26 30 26 0 0 38 -42 83 -92z
m750 -53 c-13 -15 -60 -21 -60 -7 0 4 15 17 33 30 27 19 33 20 35 7 2 -9 -2
-22 -8 -30z m-892 -291 c25 -17 28 -27 8 -43 -10 -9 -21 -7 -43 5 -83 48 -166
-64 -98 -131 31 -32 89 -35 105 -5 15 28 5 40 -36 40 -28 0 -34 4 -34 20 0 19
5 21 58 18 l57 -3 3 -48 c4 -56 -6 -72 -54 -87 -102 -34 -190 46 -170 154 16
85 127 129 204 80z m1219 1 c13 -9 23 -22 23 -31 0 -22 -26 -28 -52 -10 -65
46 -143 -22 -117 -101 12 -36 34 -53 73 -53 39 0 56 10 56 35 0 20 -6 24 -37
27 -26 2 -38 8 -38 18 0 20 104 27 116 8 16 -24 10 -87 -10 -107 -43 -43 -154
-33 -189 17 -86 123 51 278 175 197z m-963 -92 c31 -60 56 -116 56 -125 0 -25
-37 -23 -50 2 -9 17 -21 20 -80 20 -53 0 -70 -3 -70 -14 0 -7 -7 -19 -16 -26
-12 -11 -18 -11 -30 1 -13 13 -8 28 37 120 56 115 65 129 85 129 7 0 38 -48
68 -107z m167 52 c23 -30 45 -55 49 -55 4 0 25 25 45 55 38 55 67 69 79 39 8
-20 8 -198 0 -218 -3 -9 -14 -16 -25 -16 -16 0 -19 10 -21 76 l-3 76 -30 -41
c-16 -22 -37 -41 -46 -41 -9 0 -29 19 -45 42 l-29 41 -3 -77 c-3 -73 -4 -77
-25 -74 -21 3 -22 9 -25 103 -5 164 10 181 79 90z m277 -64 c3 -115 -5 -145
-34 -134 -11 4 -14 31 -14 130 0 123 0 124 23 121 21 -3 22 -7 25 -117z m156
39 l65 -81 3 78 c3 70 5 78 23 78 19 0 20 -8 23 -122 3 -123 3 -123 -21 -123
-17 0 -38 20 -82 78 l-60 77 -3 -78 c-3 -74 -4 -78 -25 -75 -21 3 -22 8 -25
112 -1 61 0 116 2 123 11 28 38 10 100 -67z m701 55 c0 -18 -8 -20 -62 -23
-59 -3 -63 -4 -63 -27 0 -23 4 -25 48 -25 55 0 77 -11 69 -34 -5 -12 -20 -16
-62 -16 -56 0 -56 0 -53 -27 3 -30 4 -30 91 -32 35 -1 47 -5 47 -16 0 -9 -6
-18 -13 -21 -26 -10 -152 -11 -164 -1 -14 10 -19 228 -6 241 4 4 43 5 88 4 72
-3 80 -5 80 -23z m85 18 c0 -5 14 -24 30 -43 l30 -35 39 44 c26 31 43 42 54
38 24 -9 21 -19 -18 -68 -19 -24 -35 -47 -35 -50 0 -3 16 -27 35 -52 19 -25
35 -53 35 -61 0 -32 -39 -16 -73 29 l-35 45 -39 -47 c-28 -33 -45 -45 -56 -40
-25 9 -21 20 22 75 l39 49 -38 48 c-21 27 -36 54 -33 62 5 14 43 19 43 6z
m378 -15 c-3 -21 -9 -23 -65 -26 -59 -3 -63 -4 -63 -27 0 -22 4 -24 58 -27 50
-3 57 -6 60 -25 3 -22 0 -23 -57 -23 -58 0 -61 -1 -61 -25 0 -20 6 -25 33 -29
17 -3 43 -4 57 -2 35 4 50 -3 50 -25 0 -20 -3 -21 -105 -24 -33 -1 -66 3 -72
8 -14 10 -19 228 -6 240 3 4 44 7 90 7 82 0 84 -1 81 -22z m-678 -203 c0 -20
-5 -25 -25 -25 -20 0 -25 5 -25 25 0 20 5 25 25 25 20 0 25 -5 25 -25z"/>
<path d="M1453 1742 c-210 -85 -134 -362 109 -397 109 -16 222 49 247 142 45
166 -179 327 -356 255z"/>
<path d="M1901 1375 c-24 -41 -41 -82 -37 -90 8 -22 184 -22 192 0 8 19 -54
127 -68 119 -6 -4 -8 -2 -5 4 11 16 -3 42 -22 42 -11 0 -33 -27 -60 -75z"/>
<path d="M751 602 l-21 -42 40 0 c45 0 46 2 21 49 l-19 35 -21 -42z"/>
</g>
</svg>
